# xmcd CD database file
#
# Track frame offsets:
#	150
#	22987
#	41740
#
# Disc length: 805 seconds
#
# Revision: 1
# Processed by: cddbd v1.5.1PL2 Copyright (c) Steve Scherf et al.
# Submitted via: CDex 1.50beta8
#
DISCID=1b032303
DTITLE=Various Artist - 剛剛好
DYEAR=1999
DGENRE=Pop
TTITLE0=ジェシカ・ソン/剛剛好
TTITLE1=岡村隆史/愛的替身
TTITLE2=岡村隆史/思い出がいっぱい
EXTD=YEAR: 1999
EXTT0=
EXTT1=
EXTT2=
PLAYORDER=
